<svg width="590" height="453" viewBox="0 0 590 453" fill="none" xmlns="http://www.w3.org/2000/svg">
<path opacity="0.5" d="M53.4305 106.28L15.2865 7.20799V97.192L27.5745 102.312V105H0.1825V102.312L12.2145 97.192V7.20799L0.4385 5.41599V2.6H28.7265L60.8545 84.776L93.6225 2.6H119.479V5.41599L107.703 7.20799V100.392L119.479 102.312V105H81.8465V102.312L93.6225 100.392V11.048L55.7345 106.28H53.4305ZM120.978 105V102.312L133.523 97.192L170.515 0.0399933H172.563L207.507 100.392L219.283 102.312V105H181.651V102.312L192.146 100.648L181.267 70.312H147.219L136.851 97.192L148.371 102.312V105H120.978ZM148.243 67.624H180.371L165.011 22.568L148.243 67.624ZM221.683 105V102.312L233.458 100.392V7.20799L221.683 5.41599V2.6H259.315V5.41599L247.539 7.20799V53.288L289.139 10.792L275.187 5.41599V2.6H304.755V5.41599L294.259 10.792L265.203 39.976L306.163 100.392L314.867 102.312V105H277.107V102.312L288.755 100.52L255.219 49.96L247.539 57.768V100.392L259.315 102.312V105H221.683ZM316.183 105V102.312L327.958 100.392V7.20799L316.183 5.41599V2.6H393.239V31.912H389.783L379.927 5.8H342.039V51.88H358.679L366.231 33.32H369.559V73.768H366.231L358.551 54.952H342.039V101.928H382.231L392.727 73.768H396.055V105H316.183ZM454.769 107.56C442.225 107.56 433.051 104.787 427.249 99.24C421.446 93.608 418.545 86.184 418.545 76.968V7.20799L406.769 5.41599V2.6H444.401V5.41599L432.625 7.20799V76.968C432.625 85.3307 434.971 91.7733 439.665 96.296C444.358 100.733 451.483 102.952 461.041 102.952C479.131 102.952 488.177 94.2907 488.177 76.968V10.408L476.273 5.41599V2.6H503.537V5.41599L491.249 10.408V76.968C491.249 87.208 488.39 94.888 482.673 100.008C476.955 105.043 467.654 107.56 454.769 107.56ZM511.933 102.312L523.708 100.392V7.20799L511.933 5.41599V2.6H552.125C564.754 2.6 574.141 5.288 580.285 10.664C586.429 16.04 589.501 23.8053 589.501 33.96C589.501 44.1147 586.429 51.88 580.285 57.256C574.141 62.632 564.754 65.32 552.125 65.32H537.789V100.392L549.565 102.312V105H511.933V102.312ZM550.333 62.248C566.119 62.248 574.013 53.672 574.013 36.52V31.4C574.013 14.3333 566.119 5.8 550.333 5.8H537.789V62.248H550.333ZM138.353 278V275.312L150.898 270.192L187.89 173.04H189.938L224.882 273.392L236.658 275.312V278H199.026V275.312L209.521 273.648L198.642 243.312H164.594L154.226 270.192L165.746 275.312V278H138.353ZM165.618 240.624H197.746L182.386 195.568L165.618 240.624ZM239.442 278V275.312L251.346 270.192V183.408L239.442 178.416V175.6H263.25L318.418 252.912V183.408L306.514 178.416V175.6H333.778V178.416L321.618 183.408V278H318.418L254.546 188.272V270.192L266.833 275.312V278H239.442ZM343.308 275.312L355.083 273.392V180.208L343.308 178.416V175.6H392.332C401.718 175.6 410.038 177.733 417.292 182C424.63 186.181 430.348 192.155 434.444 199.92C438.54 207.6 440.588 216.56 440.588 226.8C440.588 237.04 438.54 246.043 434.444 253.808C430.348 261.488 424.63 267.461 417.292 271.728C409.953 275.909 401.633 278 392.332 278H343.308V275.312ZM392.332 274.928C398.561 274.928 404.065 273.477 408.844 270.576C413.708 267.675 417.505 263.365 420.236 257.648C422.966 251.845 424.332 244.848 424.332 236.656V216.944C424.332 208.752 422.966 201.797 420.236 196.08C417.505 190.363 413.708 186.053 408.844 183.152C404.065 180.251 398.561 178.8 392.332 178.8H369.164V274.928H392.332ZM143.308 451V448.312L155.083 446.392V353.208L143.308 351.416V348.6H180.94V351.416L169.164 353.208V395.192H217.804V353.208L205.9 351.416V348.6H243.788V351.416L231.884 353.208V446.392L243.788 448.312V451H205.9V448.312L217.804 446.392V398.392H169.164V446.392L180.94 448.312V451H143.308ZM245.353 451V448.312L257.898 443.192L294.89 346.04H296.938L331.882 446.392L343.658 448.312V451H306.026V448.312L316.521 446.648L305.642 416.312H271.594L261.226 443.192L272.746 448.312V451H245.353ZM272.618 413.624H304.746L289.386 368.568L272.618 413.624ZM346.058 451V448.312L357.833 446.392V353.208L346.058 351.416V348.6H383.69V351.416L371.914 353.208V446.392L383.69 448.312V451H346.058ZM468.301 452.28C463.522 452.28 459.938 451.128 457.549 448.824C455.159 446.52 453.538 442.595 452.685 437.048L450.253 419.896C449.399 414.093 447.394 409.571 444.237 406.328C441.165 403 436.343 401.336 429.773 401.336H419.789V446.392L431.565 448.312V451H393.933V448.312L405.708 446.392V353.208L393.933 351.416V348.6H429.773C443.682 348.6 453.751 350.776 459.981 355.128C466.21 359.48 469.325 366.093 469.325 374.968C469.325 389.645 460.45 398.136 442.701 400.44V401.208C449.271 402.147 454.519 404.493 458.445 408.248C462.455 412.003 464.973 416.995 465.997 423.224L467.661 434.232C468.343 439.011 469.111 442.253 469.965 443.96C470.903 445.667 472.311 446.52 474.189 446.52C475.469 446.52 476.834 446.136 478.285 445.368C479.735 444.515 481.101 443.448 482.381 442.168L484.557 444.472C482.082 447.288 479.522 449.293 476.877 450.488C474.231 451.683 471.373 452.28 468.301 452.28ZM434.125 398.264C440.354 398.264 445.175 396.387 448.589 392.632C452.087 388.792 453.837 383.16 453.837 375.736V373.048C453.837 358.883 445.815 351.8 429.773 351.8H419.789V398.264H434.125Z" fill="#F2F2F2"/>
</svg>
