<svg width="410" height="34" viewBox="0 0 410 34" fill="none" xmlns="http://www.w3.org/2000/svg">
<path d="M17.6111 33.4L5.69109 2.44V30.56L9.53109 32.16V33H0.971094V32.16L4.73109 30.56V2.44L1.05109 1.88V1H9.89109L19.9311 26.68L30.1711 1H38.2511V1.88L34.5711 2.44V31.56L38.2511 32.16V33H26.4911V32.16L30.1711 31.56V3.64L18.3311 33.4H17.6111ZM38.7198 33V32.16L42.6398 30.56L54.1998 0.199998H54.8398L65.7598 31.56L69.4398 32.16V33H57.6798V32.16L60.9598 31.64L57.5598 22.16H46.9198L43.6798 30.56L47.2798 32.16V33H38.7198ZM47.2398 21.32H57.2798L52.4798 7.24L47.2398 21.32ZM70.1898 33V32.16L73.8698 31.56V2.44L70.1898 1.88V1H81.9498V1.88L78.2698 2.44V16.84L91.2698 3.56L86.9098 1.88V1H96.1498V1.88L92.8698 3.56L83.7898 12.68L96.5898 31.56L99.3098 32.16V33H87.5098V32.16L91.1498 31.6L80.6698 15.8L78.2698 18.24V31.56L81.9498 32.16V33H70.1898ZM99.7211 33V32.16L103.401 31.56V2.44L99.7211 1.88V1H123.801V10.16H122.721L119.641 2H107.801V16.4H113.001L115.361 10.6H116.401V23.24H115.361L112.961 17.36H107.801V32.04H120.361L123.641 23.24H124.681V33H99.7211ZM143.029 33.8C139.109 33.8 136.243 32.9333 134.429 31.2C132.616 29.44 131.709 27.12 131.709 24.24V2.44L128.029 1.88V1H139.789V1.88L136.109 2.44V24.24C136.109 26.8533 136.843 28.8667 138.309 30.28C139.776 31.6667 142.003 32.36 144.989 32.36C150.643 32.36 153.469 29.6533 153.469 24.24V3.44L149.749 1.88V1H158.269V1.88L154.429 3.44V24.24C154.429 27.44 153.536 29.84 151.749 31.44C149.963 33.0133 147.056 33.8 143.029 33.8ZM160.893 32.16L164.573 31.56V2.44L160.893 1.88V1H173.453C177.4 1 180.333 1.84 182.253 3.52C184.173 5.2 185.133 7.62667 185.133 10.8C185.133 13.9733 184.173 16.4 182.253 18.08C180.333 19.76 177.4 20.6 173.453 20.6H168.973V31.56L172.653 32.16V33H160.893V32.16ZM172.893 19.64C177.826 19.64 180.293 16.96 180.293 11.6V10C180.293 4.66667 177.826 2 172.893 2H168.973V19.64H172.893ZM195.087 33V32.16L199.007 30.56L210.567 0.199998H211.207L222.127 31.56L225.807 32.16V33H214.047V32.16L217.327 31.64L213.927 22.16H203.287L200.047 30.56L203.647 32.16V33H195.087ZM203.607 21.32H213.647L208.847 7.24L203.607 21.32ZM226.677 33V32.16L230.397 30.56V3.44L226.677 1.88V1H234.117L251.357 25.16V3.44L247.637 1.88V1H256.157V1.88L252.357 3.44V33H251.357L231.397 4.96V30.56L235.237 32.16V33H226.677ZM259.135 32.16L262.815 31.56V2.44L259.135 1.88V1H274.455C277.388 1 279.988 1.66667 282.255 3C284.548 4.30666 286.335 6.17333 287.615 8.6C288.895 11 289.535 13.8 289.535 17C289.535 20.2 288.895 23.0133 287.615 25.44C286.335 27.84 284.548 29.7067 282.255 31.04C279.962 32.3467 277.362 33 274.455 33H259.135V32.16ZM274.455 32.04C276.402 32.04 278.122 31.5867 279.615 30.68C281.135 29.7733 282.322 28.4267 283.175 26.64C284.028 24.8267 284.455 22.64 284.455 20.08V13.92C284.455 11.36 284.028 9.18667 283.175 7.4C282.322 5.61333 281.135 4.26667 279.615 3.36C278.122 2.45333 276.402 2 274.455 2H267.215V32.04H274.455ZM302.846 33V32.16L306.526 31.56V2.44L302.846 1.88V1H314.606V1.88L310.926 2.44V15.56H326.126V2.44L322.406 1.88V1H334.246V1.88L330.526 2.44V31.56L334.246 32.16V33H322.406V32.16L326.126 31.56V16.56H310.926V31.56L314.606 32.16V33H302.846ZM334.735 33V32.16L338.655 30.56L350.215 0.199998H350.855L361.775 31.56L365.455 32.16V33H353.695V32.16L356.975 31.64L353.575 22.16H342.935L339.695 30.56L343.295 32.16V33H334.735ZM343.255 21.32H353.295L348.495 7.24L343.255 21.32ZM366.205 33V32.16L369.885 31.56V2.44L366.205 1.88V1H377.965V1.88L374.285 2.44V31.56L377.965 32.16V33H366.205ZM404.406 33.4C402.913 33.4 401.793 33.04 401.046 32.32C400.3 31.6 399.793 30.3733 399.526 28.64L398.766 23.28C398.5 21.4667 397.873 20.0533 396.886 19.04C395.926 18 394.42 17.48 392.366 17.48H389.246V31.56L392.926 32.16V33H381.166V32.16L384.846 31.56V2.44L381.166 1.88V1H392.366C396.713 1 399.86 1.68 401.806 3.04C403.753 4.4 404.726 6.46667 404.726 9.24C404.726 13.8267 401.953 16.48 396.406 17.2V17.44C398.46 17.7333 400.1 18.4667 401.326 19.64C402.58 20.8133 403.366 22.3733 403.686 24.32L404.206 27.76C404.42 29.2533 404.66 30.2667 404.926 30.8C405.22 31.3333 405.66 31.6 406.246 31.6C406.646 31.6 407.073 31.48 407.526 31.24C407.98 30.9733 408.406 30.64 408.806 30.24L409.486 30.96C408.713 31.84 407.913 32.4667 407.086 32.84C406.26 33.2133 405.366 33.4 404.406 33.4ZM393.726 16.52C395.673 16.52 397.18 15.9333 398.246 14.76C399.34 13.56 399.886 11.8 399.886 9.48V8.64C399.886 4.21333 397.38 2 392.366 2H389.246V16.52H393.726Z" fill="#40403F"/>
<path d="M17.6111 33.4L17.1445 33.5797L17.2678 33.9H17.6111V33.4ZM5.69109 2.44L6.1577 2.26035L5.19109 2.44H5.69109ZM5.69109 30.56H5.19109V30.8933L5.49879 31.0215L5.69109 30.56ZM9.53109 32.16H10.0311V31.8267L9.7234 31.6985L9.53109 32.16ZM9.53109 33V33.5H10.0311V33H9.53109ZM0.971094 33H0.471094V33.5H0.971094V33ZM0.971094 32.16L0.775316 31.6999L0.471094 31.8294V32.16H0.971094ZM4.73109 30.56L4.92687 31.0201L5.23109 30.8906V30.56H4.73109ZM4.73109 2.44H5.23109V2.01033L4.80631 1.94569L4.73109 2.44ZM1.05109 1.88H0.551094V2.30967L0.975873 2.37431L1.05109 1.88ZM1.05109 1V0.5H0.551094V1H1.05109ZM9.89109 1L10.3568 0.817937L10.2325 0.5H9.89109V1ZM19.9311 26.68L19.4654 26.8621L19.9265 28.0414L20.3955 26.8652L19.9311 26.68ZM30.1711 1V0.5H29.8322L29.7067 0.814803L30.1711 1ZM38.2511 1H38.7511V0.5H38.2511V1ZM38.2511 1.88L38.3263 2.37431L38.7511 2.30967V1.88H38.2511ZM34.5711 2.44L34.4959 1.94569L34.0711 2.01033V2.44H34.5711ZM34.5711 31.56H34.0711V31.9851L34.4906 32.0535L34.5711 31.56ZM38.2511 32.16H38.7511V31.7349L38.3316 31.6665L38.2511 32.16ZM38.2511 33V33.5H38.7511V33H38.2511ZM26.4911 33H25.9911V33.5H26.4911V33ZM26.4911 32.16L26.4106 31.6665L25.9911 31.7349V32.16H26.4911ZM30.1711 31.56L30.2516 32.0535L30.6711 31.9851V31.56H30.1711ZM30.1711 3.64H30.6711L29.7065 3.45517L30.1711 3.64ZM18.3311 33.4V33.9H18.6703L18.7957 33.5848L18.3311 33.4ZM18.0777 33.2203L6.1577 2.26035L5.22448 2.61965L17.1445 33.5797L18.0777 33.2203ZM5.19109 2.44V30.56H6.19109V2.44H5.19109ZM5.49879 31.0215L9.33879 32.6215L9.7234 31.6985L5.8834 30.0985L5.49879 31.0215ZM9.03109 32.16V33H10.0311V32.16H9.03109ZM9.53109 32.5H0.971094V33.5H9.53109V32.5ZM1.47109 33V32.16H0.471094V33H1.47109ZM1.16687 32.6201L4.92687 31.0201L4.53532 30.0999L0.775316 31.6999L1.16687 32.6201ZM5.23109 30.56V2.44H4.23109V30.56H5.23109ZM4.80631 1.94569L1.12631 1.38569L0.975873 2.37431L4.65587 2.93431L4.80631 1.94569ZM1.55109 1.88V1H0.551094V1.88H1.55109ZM1.05109 1.5H9.89109V0.5H1.05109V1.5ZM9.42542 1.18206L19.4654 26.8621L20.3968 26.4979L10.3568 0.817937L9.42542 1.18206ZM20.3955 26.8652L30.6355 1.1852L29.7067 0.814803L19.4667 26.4948L20.3955 26.8652ZM30.1711 1.5H38.2511V0.5H30.1711V1.5ZM37.7511 1V1.88H38.7511V1H37.7511ZM38.1759 1.38569L34.4959 1.94569L34.6463 2.93431L38.3263 2.37431L38.1759 1.38569ZM34.0711 2.44V31.56H35.0711V2.44H34.0711ZM34.4906 32.0535L38.1706 32.6535L38.3316 31.6665L34.6516 31.0665L34.4906 32.0535ZM37.7511 32.16V33H38.7511V32.16H37.7511ZM38.2511 32.5H26.4911V33.5H38.2511V32.5ZM26.9911 33V32.16H25.9911V33H26.9911ZM26.5716 32.6535L30.2516 32.0535L30.0906 31.0665L26.4106 31.6665L26.5716 32.6535ZM30.6711 31.56V3.64H29.6711V31.56H30.6711ZM29.7065 3.45517L17.8665 33.2152L18.7957 33.5848L30.6357 3.82483L29.7065 3.45517ZM18.3311 32.9H17.6111V33.9H18.3311V32.9ZM38.7198 33H38.2198V33.5H38.7198V33ZM38.7198 32.16L38.5309 31.6971L38.2198 31.824V32.16H38.7198ZM42.6398 30.56L42.8288 31.0229L43.0298 30.9409L43.1071 30.7379L42.6398 30.56ZM54.1998 0.199998V-0.300002H53.8552L53.7326 0.022077L54.1998 0.199998ZM54.8398 0.199998L55.312 0.0355741L55.1952 -0.300002H54.8398V0.199998ZM65.7598 31.56L65.2877 31.7244L65.3856 32.0056L65.6794 32.0535L65.7598 31.56ZM69.4398 32.16H69.9398V31.7349L69.5203 31.6665L69.4398 32.16ZM69.4398 33V33.5H69.9398V33H69.4398ZM57.6798 33H57.1798V33.5H57.6798V33ZM57.6798 32.16L57.6016 31.6662L57.1798 31.733V32.16H57.6798ZM60.9598 31.64L61.0381 32.1338L61.6342 32.0393L61.4305 31.4712L60.9598 31.64ZM57.5598 22.16L58.0305 21.9912L57.9117 21.66H57.5598V22.16ZM46.9198 22.16V21.66H46.5768L46.4533 21.9801L46.9198 22.16ZM43.6798 30.56L43.2133 30.3801L43.0422 30.8238L43.4768 31.0169L43.6798 30.56ZM47.2798 32.16H47.7798V31.8351L47.4829 31.7031L47.2798 32.16ZM47.2798 33V33.5H47.7798V33H47.2798ZM47.2398 21.32L46.7712 21.1456L46.5203 21.82H47.2398V21.32ZM57.2798 21.32V21.82H57.9786L57.7531 21.1587L57.2798 21.32ZM52.4798 7.24L52.9531 7.07866L52.5005 5.751L52.0112 7.0656L52.4798 7.24ZM39.2198 33V32.16H38.2198V33H39.2198ZM38.9088 32.6229L42.8288 31.0229L42.4509 30.0971L38.5309 31.6971L38.9088 32.6229ZM43.1071 30.7379L54.6671 0.377919L53.7326 0.022077L42.1726 30.3821L43.1071 30.7379ZM54.1998 0.699998H54.8398V-0.300002H54.1998V0.699998ZM54.3677 0.364422L65.2877 31.7244L66.232 31.3956L55.312 0.0355741L54.3677 0.364422ZM65.6794 32.0535L69.3594 32.6535L69.5203 31.6665L65.8403 31.0665L65.6794 32.0535ZM68.9398 32.16V33H69.9398V32.16H68.9398ZM69.4398 32.5H57.6798V33.5H69.4398V32.5ZM58.1798 33V32.16H57.1798V33H58.1798ZM57.7581 32.6538L61.0381 32.1338L60.8816 31.1462L57.6016 31.6662L57.7581 32.6538ZM61.4305 31.4712L58.0305 21.9912L57.0892 22.3288L60.4892 31.8088L61.4305 31.4712ZM57.5598 21.66H46.9198V22.66H57.5598V21.66ZM46.4533 21.9801L43.2133 30.3801L44.1463 30.7399L47.3863 22.3399L46.4533 21.9801ZM43.4768 31.0169L47.0768 32.6169L47.4829 31.7031L43.8829 30.1031L43.4768 31.0169ZM46.7798 32.16V33H47.7798V32.16H46.7798ZM47.2798 32.5H38.7198V33.5H47.2798V32.5ZM47.2398 21.82H57.2798V20.82H47.2398V21.82ZM57.7531 21.1587L52.9531 7.07866L52.0066 7.40133L56.8066 21.4813L57.7531 21.1587ZM52.0112 7.0656L46.7712 21.1456L47.7084 21.4944L52.9484 7.41439L52.0112 7.0656ZM70.1898 33H69.6898V33.5H70.1898V33ZM70.1898 32.16L70.1094 31.6665L69.6898 31.7349V32.16H70.1898ZM73.8698 31.56L73.9503 32.0535L74.3698 31.9851V31.56H73.8698ZM73.8698 2.44H74.3698V2.01033L73.9451 1.94569L73.8698 2.44ZM70.1898 1.88H69.6898V2.30967L70.1146 2.37431L70.1898 1.88ZM70.1898 1V0.5H69.6898V1H70.1898ZM81.9498 1H82.4498V0.5H81.9498V1ZM81.9498 1.88L82.0251 2.37431L82.4498 2.30967V1.88H81.9498ZM78.2698 2.44L78.1946 1.94569L77.7698 2.01033V2.44H78.2698ZM78.2698 16.84H77.7698V18.0655L78.6271 17.1898L78.2698 16.84ZM91.2698 3.56L91.6271 3.90976L92.1588 3.36669L91.4496 3.09344L91.2698 3.56ZM86.9098 1.88H86.4098V2.22317L86.7301 2.34656L86.9098 1.88ZM86.9098 1V0.5H86.4098V1H86.9098ZM96.1498 1H96.6498V0.5H96.1498V1ZM96.1498 1.88L96.3778 2.32502L96.6498 2.18567V1.88H96.1498ZM92.8698 3.56L92.6419 3.11498L92.5714 3.15109L92.5155 3.20722L92.8698 3.56ZM83.7898 12.68L83.4355 12.3272L83.1447 12.6194L83.376 12.9606L83.7898 12.68ZM96.5898 31.56L96.176 31.8406L96.2877 32.0054L96.4821 32.0483L96.5898 31.56ZM99.3098 32.16H99.8098V31.7583L99.4175 31.6717L99.3098 32.16ZM99.3098 33V33.5H99.8098V33H99.3098ZM87.5098 33H87.0098V33.5H87.5098V33ZM87.5098 32.16L87.4338 31.6658L87.0098 31.731V32.16H87.5098ZM91.1498 31.6L91.2259 32.0942L91.9988 31.9753L91.5665 31.3236L91.1498 31.6ZM80.6698 15.8L81.0865 15.5236L80.7457 15.0098L80.3134 15.4494L80.6698 15.8ZM78.2698 18.24L77.9134 17.8894L77.7698 18.0353V18.24H78.2698ZM78.2698 31.56H77.7698V31.9851L78.1894 32.0535L78.2698 31.56ZM81.9498 32.16H82.4498V31.7349L82.0303 31.6665L81.9498 32.16ZM81.9498 33V33.5H82.4498V33H81.9498ZM70.6898 33V32.16H69.6898V33H70.6898ZM70.2703 32.6535L73.9503 32.0535L73.7894 31.0665L70.1094 31.6665L70.2703 32.6535ZM74.3698 31.56V2.44H73.3698V31.56H74.3698ZM73.9451 1.94569L70.2651 1.38569L70.1146 2.37431L73.7946 2.93431L73.9451 1.94569ZM70.6898 1.88V1H69.6898V1.88H70.6898ZM70.1898 1.5H81.9498V0.5H70.1898V1.5ZM81.4498 1V1.88H82.4498V1H81.4498ZM81.8746 1.38569L78.1946 1.94569L78.3451 2.93431L82.0251 2.37431L81.8746 1.38569ZM77.7698 2.44V16.84H78.7698V2.44H77.7698ZM78.6271 17.1898L91.6271 3.90976L90.9125 3.21023L77.9125 16.4902L78.6271 17.1898ZM91.4496 3.09344L87.0896 1.41344L86.7301 2.34656L91.0901 4.02656L91.4496 3.09344ZM87.4098 1.88V1H86.4098V1.88H87.4098ZM86.9098 1.5H96.1498V0.5H86.9098V1.5ZM95.6498 1V1.88H96.6498V1H95.6498ZM95.9219 1.43498L92.6419 3.11498L93.0978 4.00502L96.3778 2.32502L95.9219 1.43498ZM92.5155 3.20722L83.4355 12.3272L84.1442 13.0328L93.2242 3.91277L92.5155 3.20722ZM83.376 12.9606L96.176 31.8406L97.0037 31.2794L84.2037 12.3994L83.376 12.9606ZM96.4821 32.0483L99.2021 32.6483L99.4175 31.6717L96.6976 31.0717L96.4821 32.0483ZM98.8098 32.16V33H99.8098V32.16H98.8098ZM99.3098 32.5H87.5098V33.5H99.3098V32.5ZM88.0098 33V32.16H87.0098V33H88.0098ZM87.5859 32.6542L91.2259 32.0942L91.0738 31.1058L87.4338 31.6658L87.5859 32.6542ZM91.5665 31.3236L81.0865 15.5236L80.2532 16.0764L90.7332 31.8764L91.5665 31.3236ZM80.3134 15.4494L77.9134 17.8894L78.6263 18.5906L81.0263 16.1506L80.3134 15.4494ZM77.7698 18.24V31.56H78.7698V18.24H77.7698ZM78.1894 32.0535L81.8694 32.6535L82.0303 31.6665L78.3503 31.0665L78.1894 32.0535ZM81.4498 32.16V33H82.4498V32.16H81.4498ZM81.9498 32.5H70.1898V33.5H81.9498V32.5ZM99.7211 33H99.2211V33.5H99.7211V33ZM99.7211 32.16L99.6406 31.6665L99.2211 31.7349V32.16H99.7211ZM103.401 31.56L103.482 32.0535L103.901 31.9851V31.56H103.401ZM103.401 2.44H103.901V2.01033L103.476 1.94569L103.401 2.44ZM99.7211 1.88H99.2211V2.30967L99.6459 2.37431L99.7211 1.88ZM99.7211 1V0.5H99.2211V1H99.7211ZM123.801 1H124.301V0.5H123.801V1ZM123.801 10.16V10.66H124.301V10.16H123.801ZM122.721 10.16L122.253 10.3366L122.375 10.66H122.721V10.16ZM119.641 2L120.109 1.82343L119.987 1.5H119.641V2ZM107.801 2V1.5H107.301V2H107.801ZM107.801 16.4H107.301V16.9H107.801V16.4ZM113.001 16.4V16.9H113.337L113.464 16.5884L113.001 16.4ZM115.361 10.6V10.1H115.025L114.898 10.4116L115.361 10.6ZM116.401 10.6H116.901V10.1H116.401V10.6ZM116.401 23.24V23.74H116.901V23.24H116.401ZM115.361 23.24L114.898 23.4289L115.025 23.74H115.361V23.24ZM112.961 17.36L113.424 17.1711L113.297 16.86H112.961V17.36ZM107.801 17.36V16.86H107.301V17.36H107.801ZM107.801 32.04H107.301V32.54H107.801V32.04ZM120.361 32.04V32.54H120.708L120.83 32.2146L120.361 32.04ZM123.641 23.24V22.74H123.294L123.173 23.0654L123.641 23.24ZM124.681 23.24H125.181V22.74H124.681V23.24ZM124.681 33V33.5H125.181V33H124.681ZM100.221 33V32.16H99.2211V33H100.221ZM99.8016 32.6535L103.482 32.0535L103.321 31.0665L99.6406 31.6665L99.8016 32.6535ZM103.901 31.56V2.44H102.901V31.56H103.901ZM103.476 1.94569L99.7963 1.38569L99.6459 2.37431L103.326 2.93431L103.476 1.94569ZM100.221 1.88V1H99.2211V1.88H100.221ZM99.7211 1.5H123.801V0.5H99.7211V1.5ZM123.301 1V10.16H124.301V1H123.301ZM123.801 9.66H122.721V10.66H123.801V9.66ZM123.189 9.98343L120.109 1.82343L119.173 2.17656L122.253 10.3366L123.189 9.98343ZM119.641 1.5H107.801V2.5H119.641V1.5ZM107.301 2V16.4H108.301V2H107.301ZM107.801 16.9H113.001V15.9H107.801V16.9ZM113.464 16.5884L115.824 10.7884L114.898 10.4116L112.538 16.2116L113.464 16.5884ZM115.361 11.1H116.401V10.1H115.361V11.1ZM115.901 10.6V23.24H116.901V10.6H115.901ZM116.401 22.74H115.361V23.74H116.401V22.74ZM115.824 23.0511L113.424 17.1711L112.498 17.5489L114.898 23.4289L115.824 23.0511ZM112.961 16.86H107.801V17.86H112.961V16.86ZM107.301 17.36V32.04H108.301V17.36H107.301ZM107.801 32.54H120.361V31.54H107.801V32.54ZM120.83 32.2146L124.11 23.4146L123.173 23.0654L119.893 31.8654L120.83 32.2146ZM123.641 23.74H124.681V22.74H123.641V23.74ZM124.181 23.24V33H125.181V23.24H124.181ZM124.681 32.5H99.7211V33.5H124.681V32.5ZM134.429 31.2L134.081 31.5588L134.084 31.5614L134.429 31.2ZM131.709 2.44H132.209V2.01033L131.784 1.94569L131.709 2.44ZM128.029 1.88H127.529V2.30967L127.954 2.37431L128.029 1.88ZM128.029 1V0.5H127.529V1H128.029ZM139.789 1H140.289V0.5H139.789V1ZM139.789 1.88L139.864 2.37431L140.289 2.30967V1.88H139.789ZM136.109 2.44L136.034 1.94569L135.609 2.01033V2.44H136.109ZM138.309 30.28L137.962 30.6401L137.966 30.6433L138.309 30.28ZM153.469 3.44H153.969V3.10749L153.663 2.9789L153.469 3.44ZM149.749 1.88H149.249V2.21251L149.556 2.34109L149.749 1.88ZM149.749 1V0.5H149.249V1H149.749ZM158.269 1H158.769V0.5H158.269V1ZM158.269 1.88L158.457 2.34323L158.769 2.21656V1.88H158.269ZM154.429 3.44L154.241 2.97677L153.929 3.10344V3.44H154.429ZM151.749 31.44L152.08 31.8153L152.083 31.8125L151.749 31.44ZM143.029 33.3C139.168 33.3 136.454 32.4442 134.775 30.8386L134.084 31.5614C136.031 33.4225 139.05 34.3 143.029 34.3V33.3ZM134.777 30.8412C133.075 29.1888 132.209 27.0054 132.209 24.24H131.209C131.209 27.2346 132.157 29.6912 134.081 31.5588L134.777 30.8412ZM132.209 24.24V2.44H131.209V24.24H132.209ZM131.784 1.94569L128.104 1.38569L127.954 2.37431L131.634 2.93431L131.784 1.94569ZM128.529 1.88V1H127.529V1.88H128.529ZM128.029 1.5H139.789V0.5H128.029V1.5ZM139.289 1V1.88H140.289V1H139.289ZM139.714 1.38569L136.034 1.94569L136.184 2.93431L139.864 2.37431L139.714 1.38569ZM135.609 2.44V24.24H136.609V2.44H135.609ZM135.609 24.24C135.609 26.9487 136.372 29.1076 137.962 30.64L138.656 29.92C137.313 28.6257 136.609 26.758 136.609 24.24H135.609ZM137.966 30.6433C139.561 32.1519 141.935 32.86 144.989 32.86V31.86C142.07 31.86 139.99 31.1814 138.653 29.9167L137.966 30.6433ZM144.989 32.86C147.888 32.86 150.154 32.1665 151.695 30.6911C153.24 29.2119 153.969 27.0294 153.969 24.24H152.969C152.969 26.8639 152.285 28.7414 151.003 29.9689C149.718 31.2002 147.744 31.86 144.989 31.86V32.86ZM153.969 24.24V3.44H152.969V24.24H153.969ZM153.663 2.9789L149.943 1.4189L149.556 2.34109L153.276 3.9011L153.663 2.9789ZM150.249 1.88V1H149.249V1.88H150.249ZM149.749 1.5H158.269V0.5H149.749V1.5ZM157.769 1V1.88H158.769V1H157.769ZM158.081 1.41676L154.241 2.97677L154.617 3.90323L158.457 2.34323L158.081 1.41676ZM153.929 3.44V24.24H154.929V3.44H153.929ZM153.929 24.24C153.929 27.3478 153.064 29.5913 151.416 31.0675L152.083 31.8125C154.008 30.0887 154.929 27.5322 154.929 24.24H153.929ZM151.419 31.0648C149.768 32.5181 147.012 33.3 143.029 33.3V34.3C147.1 34.3 150.157 33.5086 152.08 31.8152L151.419 31.0648ZM160.893 32.16L160.813 31.6665L160.393 31.7349V32.16H160.893ZM164.573 31.56L164.653 32.0535L165.073 31.9851V31.56H164.573ZM164.573 2.44H165.073V2.01033L164.648 1.94569L164.573 2.44ZM160.893 1.88H160.393V2.30967L160.818 2.37431L160.893 1.88ZM160.893 1V0.5H160.393V1H160.893ZM182.253 3.52L182.582 3.14371L182.582 3.14371L182.253 3.52ZM182.253 18.08L181.924 17.7037L181.924 17.7037L182.253 18.08ZM168.973 20.6V20.1H168.473V20.6H168.973ZM168.973 31.56H168.473V31.9851L168.893 32.0535L168.973 31.56ZM172.653 32.16H173.153V31.7349L172.733 31.6665L172.653 32.16ZM172.653 33V33.5H173.153V33H172.653ZM160.893 33H160.393V33.5H160.893V33ZM168.973 2V1.5H168.473V2H168.973ZM168.973 19.64H168.473V20.14H168.973V19.64ZM160.973 32.6535L164.653 32.0535L164.493 31.0665L160.813 31.6665L160.973 32.6535ZM165.073 31.56V2.44H164.073V31.56H165.073ZM164.648 1.94569L160.968 1.38569L160.818 2.37431L164.498 2.93431L164.648 1.94569ZM161.393 1.88V1H160.393V1.88H161.393ZM160.893 1.5H173.453V0.5H160.893V1.5ZM173.453 1.5C177.342 1.5 180.133 2.32971 181.924 3.89629L182.582 3.14371C180.533 1.35028 177.457 0.5 173.453 0.5V1.5ZM181.924 3.89629C183.71 5.45889 184.633 7.73283 184.633 10.8H185.633C185.633 7.5205 184.636 4.94111 182.582 3.14371L181.924 3.89629ZM184.633 10.8C184.633 13.8672 183.71 16.1411 181.924 17.7037L182.582 18.4563C184.636 16.6589 185.633 14.0795 185.633 10.8H184.633ZM181.924 17.7037C180.133 19.2703 177.342 20.1 173.453 20.1V21.1C177.457 21.1 180.533 20.2497 182.582 18.4563L181.924 17.7037ZM173.453 20.1H168.973V21.1H173.453V20.1ZM168.473 20.6V31.56H169.473V20.6H168.473ZM168.893 32.0535L172.573 32.6535L172.733 31.6665L169.053 31.0665L168.893 32.0535ZM172.153 32.16V33H173.153V32.16H172.153ZM172.653 32.5H160.893V33.5H172.653V32.5ZM161.393 33V32.16H160.393V33H161.393ZM172.893 20.14C175.448 20.14 177.453 19.4441 178.811 17.9686C180.162 16.5009 180.793 14.3473 180.793 11.6H179.793C179.793 14.2127 179.191 16.0791 178.075 17.2914C176.966 18.4959 175.271 19.14 172.893 19.14V20.14ZM180.793 11.6V10H179.793V11.6H180.793ZM180.793 10C180.793 7.26552 180.161 5.12146 178.81 3.66048C177.452 2.19213 175.447 1.5 172.893 1.5V2.5C175.272 2.5 176.967 3.1412 178.076 4.33952C179.191 5.5452 179.793 7.40115 179.793 10H180.793ZM172.893 1.5H168.973V2.5H172.893V1.5ZM168.473 2V19.64H169.473V2H168.473ZM168.973 20.14H172.893V19.14H168.973V20.14ZM195.087 33H194.587V33.5H195.087V33ZM195.087 32.16L194.898 31.6971L194.587 31.824V32.16H195.087ZM199.007 30.56L199.196 31.0229L199.397 30.9409L199.474 30.7379L199.007 30.56ZM210.567 0.199998V-0.300002H210.222L210.1 0.022077L210.567 0.199998ZM211.207 0.199998L211.679 0.0355741L211.562 -0.300002H211.207V0.199998ZM222.127 31.56L221.655 31.7244L221.753 32.0056L222.047 32.0535L222.127 31.56ZM225.807 32.16H226.307V31.7349L225.887 31.6665L225.807 32.16ZM225.807 33V33.5H226.307V33H225.807ZM214.047 33H213.547V33.5H214.047V33ZM214.047 32.16L213.969 31.6662L213.547 31.733V32.16H214.047ZM217.327 31.64L217.405 32.1338L218.001 32.0393L217.798 31.4712L217.327 31.64ZM213.927 22.16L214.398 21.9912L214.279 21.66H213.927V22.16ZM203.287 22.16V21.66H202.944L202.821 21.9801L203.287 22.16ZM200.047 30.56L199.581 30.3801L199.409 30.8238L199.844 31.0169L200.047 30.56ZM203.647 32.16H204.147V31.8351L203.85 31.7031L203.647 32.16ZM203.647 33V33.5H204.147V33H203.647ZM203.607 21.32L203.138 21.1456L202.887 21.82H203.607V21.32ZM213.647 21.32V21.82H214.346L214.12 21.1587L213.647 21.32ZM208.847 7.24L209.32 7.07866L208.868 5.751L208.378 7.0656L208.847 7.24ZM195.587 33V32.16H194.587V33H195.587ZM195.276 32.6229L199.196 31.0229L198.818 30.0971L194.898 31.6971L195.276 32.6229ZM199.474 30.7379L211.034 0.377919L210.1 0.022077L198.54 30.3821L199.474 30.7379ZM210.567 0.699998H211.207V-0.300002H210.567V0.699998ZM210.735 0.364422L221.655 31.7244L222.599 31.3956L211.679 0.0355741L210.735 0.364422ZM222.047 32.0535L225.727 32.6535L225.887 31.6665L222.207 31.0665L222.047 32.0535ZM225.307 32.16V33H226.307V32.16H225.307ZM225.807 32.5H214.047V33.5H225.807V32.5ZM214.547 33V32.16H213.547V33H214.547ZM214.125 32.6538L217.405 32.1338L217.249 31.1462L213.969 31.6662L214.125 32.6538ZM217.798 31.4712L214.398 21.9912L213.456 22.3288L216.856 31.8088L217.798 31.4712ZM213.927 21.66H203.287V22.66H213.927V21.66ZM202.821 21.9801L199.581 30.3801L200.514 30.7399L203.754 22.3399L202.821 21.9801ZM199.844 31.0169L203.444 32.6169L203.85 31.7031L200.25 30.1031L199.844 31.0169ZM203.147 32.16V33H204.147V32.16H203.147ZM203.647 32.5H195.087V33.5H203.647V32.5ZM203.607 21.82H213.647V20.82H203.607V21.82ZM214.12 21.1587L209.32 7.07866L208.374 7.40133L213.174 21.4813L214.12 21.1587ZM208.378 7.0656L203.138 21.1456L204.076 21.4944L209.316 7.41439L208.378 7.0656ZM226.677 33H226.177V33.5H226.677V33ZM226.677 32.16L226.479 31.7007L226.177 31.8308V32.16H226.677ZM230.397 30.56L230.595 31.0193L230.897 30.8892V30.56H230.397ZM230.397 3.44H230.897V3.10749L230.59 2.9789L230.397 3.44ZM226.677 1.88H226.177V2.21251L226.484 2.34109L226.677 1.88ZM226.677 1V0.5H226.177V1H226.677ZM234.117 1L234.524 0.709572L234.374 0.5H234.117V1ZM251.357 25.16L250.95 25.4504L251.857 26.7215V25.16H251.357ZM251.357 3.44H251.857V3.10749L251.55 2.9789L251.357 3.44ZM247.637 1.88H247.137V2.21251L247.444 2.34109L247.637 1.88ZM247.637 1V0.5H247.137V1H247.637ZM256.157 1H256.657V0.5H256.157V1ZM256.157 1.88L256.347 2.34254L256.657 2.21523V1.88H256.157ZM252.357 3.44L252.167 2.97746L251.857 3.10477V3.44H252.357ZM252.357 33V33.5H252.857V33H252.357ZM251.357 33L250.95 33.29L251.099 33.5H251.357V33ZM231.397 4.96L231.804 4.67004L230.897 3.3954V4.96H231.397ZM231.397 30.56H230.897V30.8933L231.205 31.0215L231.397 30.56ZM235.237 32.16H235.737V31.8267L235.429 31.6985L235.237 32.16ZM235.237 33V33.5H235.737V33H235.237ZM227.177 33V32.16H226.177V33H227.177ZM226.875 32.6193L230.595 31.0193L230.199 30.1007L226.479 31.7007L226.875 32.6193ZM230.897 30.56V3.44H229.897V30.56H230.897ZM230.59 2.9789L226.87 1.4189L226.484 2.34109L230.204 3.9011L230.59 2.9789ZM227.177 1.88V1H226.177V1.88H227.177ZM226.677 1.5H234.117V0.5H226.677V1.5ZM233.71 1.29043L250.95 25.4504L251.764 24.8696L234.524 0.709572L233.71 1.29043ZM251.857 25.16V3.44H250.857V25.16H251.857ZM251.55 2.9789L247.83 1.4189L247.444 2.34109L251.164 3.9011L251.55 2.9789ZM248.137 1.88V1H247.137V1.88H248.137ZM247.637 1.5H256.157V0.5H247.637V1.5ZM255.657 1V1.88H256.657V1H255.657ZM255.967 1.41746L252.167 2.97746L252.547 3.90254L256.347 2.34254L255.967 1.41746ZM251.857 3.44V33H252.857V3.44H251.857ZM252.357 32.5H251.357V33.5H252.357V32.5ZM251.764 32.71L231.804 4.67004L230.99 5.24996L250.95 33.29L251.764 32.71ZM230.897 4.96V30.56H231.897V4.96H230.897ZM231.205 31.0215L235.045 32.6215L235.429 31.6985L231.589 30.0985L231.205 31.0215ZM234.737 32.16V33H235.737V32.16H234.737ZM235.237 32.5H226.677V33.5H235.237V32.5ZM259.135 32.16L259.055 31.6665L258.635 31.7349V32.16H259.135ZM262.815 31.56L262.896 32.0535L263.315 31.9851V31.56H262.815ZM262.815 2.44H263.315V2.01033L262.89 1.94569L262.815 2.44ZM259.135 1.88H258.635V2.30967L259.06 2.37431L259.135 1.88ZM259.135 1V0.5H258.635V1H259.135ZM282.255 3L282.002 3.43101L282.008 3.43443L282.255 3ZM287.615 8.6L287.173 8.83328L287.174 8.83529L287.615 8.6ZM287.615 25.44L288.056 25.6753L288.057 25.6733L287.615 25.44ZM282.255 31.04L282.503 31.4744L282.506 31.4723L282.255 31.04ZM259.135 33H258.635V33.5H259.135V33ZM279.615 30.68L279.359 30.2506L279.356 30.2526L279.615 30.68ZM283.175 26.64L283.626 26.8555L283.628 26.8529L283.175 26.64ZM283.175 7.4L283.626 7.18451L283.626 7.18451L283.175 7.4ZM279.615 3.36L279.356 3.7874L279.359 3.78941L279.615 3.36ZM267.215 2V1.5H266.715V2H267.215ZM267.215 32.04H266.715V32.54H267.215V32.04ZM259.216 32.6535L262.896 32.0535L262.735 31.0665L259.055 31.6665L259.216 32.6535ZM263.315 31.56V2.44H262.315V31.56H263.315ZM262.89 1.94569L259.21 1.38569L259.06 2.37431L262.74 2.93431L262.89 1.94569ZM259.635 1.88V1H258.635V1.88H259.635ZM259.135 1.5H274.455V0.5H259.135V1.5ZM274.455 1.5C277.31 1.5 279.82 2.1479 282.002 3.43096L282.509 2.56903C280.157 1.18544 277.467 0.5 274.455 0.5V1.5ZM282.008 3.43443C284.215 4.69204 285.935 6.48734 287.173 8.83327L288.057 8.36673C286.735 5.85933 284.882 3.92129 282.503 2.56557L282.008 3.43443ZM287.174 8.83529C288.409 11.1511 289.035 13.8676 289.035 17H290.035C290.035 13.7324 289.381 10.8489 288.056 8.36471L287.174 8.83529ZM289.035 17C289.035 20.1323 288.409 22.8631 287.173 25.2067L288.057 25.6733C289.381 23.1636 290.035 20.2677 290.035 17H289.035ZM287.174 25.2047C285.937 27.5249 284.215 29.3224 282.004 30.6077L282.506 31.4723C284.882 30.091 286.734 28.1551 288.056 25.6753L287.174 25.2047ZM282.008 30.6056C279.797 31.865 277.284 32.5 274.455 32.5V33.5C277.44 33.5 280.126 32.8283 282.503 31.4744L282.008 30.6056ZM274.455 32.5H259.135V33.5H274.455V32.5ZM259.635 33V32.16H258.635V33H259.635ZM274.455 32.54C276.483 32.54 278.294 32.0668 279.875 31.1074L279.356 30.2526C277.949 31.1065 276.321 31.54 274.455 31.54V32.54ZM279.871 31.1094C281.486 30.1464 282.736 28.7202 283.626 26.8555L282.724 26.4245C281.908 28.1331 280.784 29.4003 279.359 30.2506L279.871 31.1094ZM283.628 26.8529C284.52 24.9572 284.955 22.6939 284.955 20.08H283.955C283.955 22.5861 283.537 24.6962 282.723 26.4271L283.628 26.8529ZM284.955 20.08V13.92H283.955V20.08H284.955ZM284.955 13.92C284.955 11.3065 284.52 9.05517 283.626 7.18451L282.724 7.61549C283.537 9.31816 283.955 11.4135 283.955 13.92H284.955ZM283.626 7.18451C282.736 5.31981 281.486 3.89365 279.871 2.93059L279.359 3.78941C280.784 4.63968 281.908 5.90685 282.724 7.61549L283.626 7.18451ZM279.875 2.9326C278.294 1.97316 276.483 1.5 274.455 1.5V2.5C276.321 2.5 277.949 2.9335 279.356 3.78739L279.875 2.9326ZM274.455 1.5H267.215V2.5H274.455V1.5ZM266.715 2V32.04H267.715V2H266.715ZM267.215 32.54H274.455V31.54H267.215V32.54ZM302.846 33H302.346V33.5H302.846V33ZM302.846 32.16L302.766 31.6665L302.346 31.7349V32.16H302.846ZM306.526 31.56L306.607 32.0535L307.026 31.9851V31.56H306.526ZM306.526 2.44H307.026V2.01033L306.601 1.94569L306.526 2.44ZM302.846 1.88H302.346V2.30967L302.771 2.37431L302.846 1.88ZM302.846 1V0.5H302.346V1H302.846ZM314.606 1H315.106V0.5H314.606V1ZM314.606 1.88L314.681 2.37431L315.106 2.30967V1.88H314.606ZM310.926 2.44L310.851 1.94569L310.426 2.01033V2.44H310.926ZM310.926 15.56H310.426V16.06H310.926V15.56ZM326.126 15.56V16.06H326.626V15.56H326.126ZM326.126 2.44H326.626V2.00963L326.201 1.94557L326.126 2.44ZM322.406 1.88H321.906V2.31036L322.332 2.37443L322.406 1.88ZM322.406 1V0.5H321.906V1H322.406ZM334.246 1H334.746V0.5H334.246V1ZM334.246 1.88L334.321 2.37443L334.746 2.31036V1.88H334.246ZM330.526 2.44L330.452 1.94557L330.026 2.00963V2.44H330.526ZM330.526 31.56H330.026V31.9858L330.446 32.0536L330.526 31.56ZM334.246 32.16H334.746V31.7342L334.326 31.6664L334.246 32.16ZM334.246 33V33.5H334.746V33H334.246ZM322.406 33H321.906V33.5H322.406V33ZM322.406 32.16L322.326 31.6664L321.906 31.7342V32.16H322.406ZM326.126 31.56L326.206 32.0536L326.626 31.9858V31.56H326.126ZM326.126 16.56H326.626V16.06H326.126V16.56ZM310.926 16.56V16.06H310.426V16.56H310.926ZM310.926 31.56H310.426V31.9851L310.846 32.0535L310.926 31.56ZM314.606 32.16H315.106V31.7349L314.687 31.6665L314.606 32.16ZM314.606 33V33.5H315.106V33H314.606ZM303.346 33V32.16H302.346V33H303.346ZM302.927 32.6535L306.607 32.0535L306.446 31.0665L302.766 31.6665L302.927 32.6535ZM307.026 31.56V2.44H306.026V31.56H307.026ZM306.601 1.94569L302.921 1.38569L302.771 2.37431L306.451 2.93431L306.601 1.94569ZM303.346 1.88V1H302.346V1.88H303.346ZM302.846 1.5H314.606V0.5H302.846V1.5ZM314.106 1V1.88H315.106V1H314.106ZM314.531 1.38569L310.851 1.94569L311.001 2.93431L314.681 2.37431L314.531 1.38569ZM310.426 2.44V15.56H311.426V2.44H310.426ZM310.926 16.06H326.126V15.06H310.926V16.06ZM326.626 15.56V2.44H325.626V15.56H326.626ZM326.201 1.94557L322.481 1.38557L322.332 2.37443L326.052 2.93443L326.201 1.94557ZM322.906 1.88V1H321.906V1.88H322.906ZM322.406 1.5H334.246V0.5H322.406V1.5ZM333.746 1V1.88H334.746V1H333.746ZM334.172 1.38557L330.452 1.94557L330.601 2.93443L334.321 2.37443L334.172 1.38557ZM330.026 2.44V31.56H331.026V2.44H330.026ZM330.446 32.0536L334.166 32.6536L334.326 31.6664L330.606 31.0664L330.446 32.0536ZM333.746 32.16V33H334.746V32.16H333.746ZM334.246 32.5H322.406V33.5H334.246V32.5ZM322.906 33V32.16H321.906V33H322.906ZM322.486 32.6536L326.206 32.0536L326.046 31.0664L322.326 31.6664L322.486 32.6536ZM326.626 31.56V16.56H325.626V31.56H326.626ZM326.126 16.06H310.926V17.06H326.126V16.06ZM310.426 16.56V31.56H311.426V16.56H310.426ZM310.846 32.0535L314.526 32.6535L314.687 31.6665L311.007 31.0665L310.846 32.0535ZM314.106 32.16V33H315.106V32.16H314.106ZM314.606 32.5H302.846V33.5H314.606V32.5ZM334.735 33H334.235V33.5H334.735V33ZM334.735 32.16L334.547 31.6971L334.235 31.824V32.16H334.735ZM338.655 30.56L338.844 31.0229L339.045 30.9409L339.123 30.7379L338.655 30.56ZM350.215 0.199998V-0.300002H349.871L349.748 0.022077L350.215 0.199998ZM350.855 0.199998L351.328 0.0355741L351.211 -0.300002H350.855V0.199998ZM361.775 31.56L361.303 31.7244L361.401 32.0056L361.695 32.0535L361.775 31.56ZM365.455 32.16H365.955V31.7349L365.536 31.6665L365.455 32.16ZM365.455 33V33.5H365.955V33H365.455ZM353.695 33H353.195V33.5H353.695V33ZM353.695 32.16L353.617 31.6662L353.195 31.733V32.16H353.695ZM356.975 31.64L357.054 32.1338L357.65 32.0393L357.446 31.4712L356.975 31.64ZM353.575 22.16L354.046 21.9912L353.927 21.66H353.575V22.16ZM342.935 22.16V21.66H342.592L342.469 21.9801L342.935 22.16ZM339.695 30.56L339.229 30.3801L339.058 30.8238L339.492 31.0169L339.695 30.56ZM343.295 32.16H343.795V31.8351L343.499 31.7031L343.295 32.16ZM343.295 33V33.5H343.795V33H343.295ZM343.255 21.32L342.787 21.1456L342.536 21.82H343.255V21.32ZM353.295 21.32V21.82H353.994L353.769 21.1587L353.295 21.32ZM348.495 7.24L348.969 7.07866L348.516 5.751L348.027 7.0656L348.495 7.24ZM335.235 33V32.16H334.235V33H335.235ZM334.924 32.6229L338.844 31.0229L338.467 30.0971L334.547 31.6971L334.924 32.6229ZM339.123 30.7379L350.683 0.377919L349.748 0.022077L338.188 30.3821L339.123 30.7379ZM350.215 0.699998H350.855V-0.300002H350.215V0.699998ZM350.383 0.364422L361.303 31.7244L362.248 31.3956L351.328 0.0355741L350.383 0.364422ZM361.695 32.0535L365.375 32.6535L365.536 31.6665L361.856 31.0665L361.695 32.0535ZM364.955 32.16V33H365.955V32.16H364.955ZM365.455 32.5H353.695V33.5H365.455V32.5ZM354.195 33V32.16H353.195V33H354.195ZM353.774 32.6538L357.054 32.1338L356.897 31.1462L353.617 31.6662L353.774 32.6538ZM357.446 31.4712L354.046 21.9912L353.105 22.3288L356.505 31.8088L357.446 31.4712ZM353.575 21.66H342.935V22.66H353.575V21.66ZM342.469 21.9801L339.229 30.3801L340.162 30.7399L343.402 22.3399L342.469 21.9801ZM339.492 31.0169L343.092 32.6169L343.499 31.7031L339.899 30.1031L339.492 31.0169ZM342.795 32.16V33H343.795V32.16H342.795ZM343.295 32.5H334.735V33.5H343.295V32.5ZM343.255 21.82H353.295V20.82H343.255V21.82ZM353.769 21.1587L348.969 7.07866L348.022 7.40133L352.822 21.4813L353.769 21.1587ZM348.027 7.0656L342.787 21.1456L343.724 21.4944L348.964 7.41439L348.027 7.0656ZM366.205 33H365.705V33.5H366.205V33ZM366.205 32.16L366.125 31.6665L365.705 31.7349V32.16H366.205ZM369.885 31.56L369.966 32.0535L370.385 31.9851V31.56H369.885ZM369.885 2.44H370.385V2.01033L369.961 1.94569L369.885 2.44ZM366.205 1.88H365.705V2.30967L366.13 2.37431L366.205 1.88ZM366.205 1V0.5H365.705V1H366.205ZM377.965 1H378.465V0.5H377.965V1ZM377.965 1.88L378.041 2.37431L378.465 2.30967V1.88H377.965ZM374.285 2.44L374.21 1.94569L373.785 2.01033V2.44H374.285ZM374.285 31.56H373.785V31.9851L374.205 32.0535L374.285 31.56ZM377.965 32.16H378.465V31.7349L378.046 31.6665L377.965 32.16ZM377.965 33V33.5H378.465V33H377.965ZM366.705 33V32.16H365.705V33H366.705ZM366.286 32.6535L369.966 32.0535L369.805 31.0665L366.125 31.6665L366.286 32.6535ZM370.385 31.56V2.44H369.385V31.56H370.385ZM369.961 1.94569L366.281 1.38569L366.13 2.37431L369.81 2.93431L369.961 1.94569ZM366.705 1.88V1H365.705V1.88H366.705ZM366.205 1.5H377.965V0.5H366.205V1.5ZM377.465 1V1.88H378.465V1H377.465ZM377.89 1.38569L374.21 1.94569L374.361 2.93431L378.041 2.37431L377.89 1.38569ZM373.785 2.44V31.56H374.785V2.44H373.785ZM374.205 32.0535L377.885 32.6535L378.046 31.6665L374.366 31.0665L374.205 32.0535ZM377.465 32.16V33H378.465V32.16H377.465ZM377.965 32.5H366.205V33.5H377.965V32.5ZM401.046 32.32L400.699 32.6799L401.046 32.32ZM399.526 28.64L399.031 28.7102L399.032 28.716L399.526 28.64ZM398.766 23.28L399.261 23.2098L399.261 23.2073L398.766 23.28ZM396.886 19.04L396.519 19.3793L396.528 19.3888L396.886 19.04ZM389.246 17.48V16.98H388.746V17.48H389.246ZM389.246 31.56H388.746V31.9851L389.166 32.0535L389.246 31.56ZM392.926 32.16H393.426V31.7349L393.007 31.6665L392.926 32.16ZM392.926 33V33.5H393.426V33H392.926ZM381.166 33H380.666V33.5H381.166V33ZM381.166 32.16L381.086 31.6665L380.666 31.7349V32.16H381.166ZM384.846 31.56L384.927 32.0535L385.346 31.9851V31.56H384.846ZM384.846 2.44H385.346V2.01033L384.922 1.94569L384.846 2.44ZM381.166 1.88H380.666V2.30967L381.091 2.37431L381.166 1.88ZM381.166 1V0.5H380.666V1H381.166ZM401.806 3.04L402.093 2.63012L402.093 2.63012L401.806 3.04ZM396.406 17.2L396.342 16.7042L395.906 16.7607V17.2H396.406ZM396.406 17.44H395.906V17.8736L396.336 17.935L396.406 17.44ZM401.326 19.64L400.981 20.0013L400.985 20.005L401.326 19.64ZM403.686 24.32L404.181 24.2453L404.18 24.2389L403.686 24.32ZM404.206 27.76L404.701 27.6893L404.701 27.6853L404.206 27.76ZM404.926 30.8L404.479 31.0236L404.484 31.0324L404.488 31.041L404.926 30.8ZM407.526 31.24L407.76 31.6819L407.77 31.6766L407.78 31.671L407.526 31.24ZM408.806 30.24L409.17 29.8967L408.817 29.5226L408.453 29.8864L408.806 30.24ZM409.486 30.96L409.862 31.2901L410.163 30.9479L409.85 30.6167L409.486 30.96ZM398.246 14.76L397.877 14.4233L397.876 14.4237L398.246 14.76ZM389.246 2V1.5H388.746V2H389.246ZM389.246 16.52H388.746V17.02H389.246V16.52ZM404.406 32.9C402.986 32.9 402.013 32.5573 401.393 31.9601L400.699 32.6799C401.573 33.5227 402.84 33.9 404.406 33.9V32.9ZM401.393 31.9601C400.764 31.3528 400.281 30.2568 400.021 28.564L399.032 28.716C399.305 30.4898 399.836 31.8472 400.699 32.6799L401.393 31.9601ZM400.021 28.5698L399.261 23.2098L398.271 23.3502L399.031 28.7102L400.021 28.5698ZM399.261 23.2073C398.984 21.3206 398.324 19.7995 397.245 18.6912L396.528 19.3888C397.422 20.3072 398.016 21.6127 398.272 23.3527L399.261 23.2073ZM397.254 18.7009C396.163 17.5193 394.496 16.98 392.366 16.98V17.98C394.344 17.98 395.69 18.4807 396.519 19.3791L397.254 18.7009ZM392.366 16.98H389.246V17.98H392.366V16.98ZM388.746 17.48V31.56H389.746V17.48H388.746ZM389.166 32.0535L392.846 32.6535L393.007 31.6665L389.327 31.0665L389.166 32.0535ZM392.426 32.16V33H393.426V32.16H392.426ZM392.926 32.5H381.166V33.5H392.926V32.5ZM381.666 33V32.16H380.666V33H381.666ZM381.247 32.6535L384.927 32.0535L384.766 31.0665L381.086 31.6665L381.247 32.6535ZM385.346 31.56V2.44H384.346V31.56H385.346ZM384.922 1.94569L381.242 1.38569L381.091 2.37431L384.771 2.93431L384.922 1.94569ZM381.666 1.88V1H380.666V1.88H381.666ZM381.166 1.5H392.366V0.5H381.166V1.5ZM392.366 1.5C396.684 1.5 399.702 2.17996 401.52 3.44988L402.093 2.63012C400.017 1.18004 396.742 0.5 392.366 0.5V1.5ZM401.52 3.44988C403.309 4.69965 404.226 6.59849 404.226 9.24H405.226C405.226 6.33484 404.197 4.10035 402.093 2.63012L401.52 3.44988ZM404.226 9.24C404.226 11.4256 403.57 13.0945 402.301 14.3087C401.019 15.5349 399.056 16.3519 396.342 16.7042L396.471 17.6958C399.303 17.3281 401.5 16.4585 402.992 15.0313C404.496 13.5921 405.226 11.6411 405.226 9.24H404.226ZM395.906 17.2V17.44H396.906V17.2H395.906ZM396.336 17.935C398.309 18.2169 399.845 18.9149 400.981 20.0013L401.672 19.2787C400.355 18.0185 398.61 17.2498 396.477 16.945L396.336 17.935ZM400.985 20.005C402.146 21.0921 402.888 22.5463 403.193 24.4011L404.18 24.2389C403.845 22.2004 403.014 20.5346 401.668 19.275L400.985 20.005ZM403.192 24.3947L403.712 27.8347L404.701 27.6853L404.181 24.2453L403.192 24.3947ZM403.711 27.8307C403.924 29.3202 404.172 30.409 404.479 31.0236L405.374 30.5764C405.148 30.1243 404.915 29.1865 404.701 27.6893L403.711 27.8307ZM404.488 31.041C404.669 31.3703 404.91 31.6411 405.217 31.8276C405.526 32.0146 405.875 32.1 406.246 32.1V31.1C406.031 31.1 405.867 31.052 405.736 30.9724C405.603 30.8922 405.477 30.763 405.365 30.559L404.488 31.041ZM406.246 32.1C406.748 32.1 407.255 31.9496 407.76 31.6819L407.292 30.7981C406.891 31.0104 406.545 31.1 406.246 31.1V32.1ZM407.78 31.671C408.272 31.3813 408.732 31.0212 409.16 30.5936L408.453 29.8864C408.081 30.2588 407.687 30.5654 407.273 30.809L407.78 31.671ZM408.443 30.5833L409.123 31.3033L409.85 30.6167L409.17 29.8967L408.443 30.5833ZM409.111 30.6299C408.371 31.4714 407.626 32.0475 406.881 32.3843L407.292 33.2957C408.2 32.8858 409.055 32.2086 409.862 31.2901L409.111 30.6299ZM406.881 32.3843C406.122 32.7268 405.3 32.9 404.406 32.9V33.9C405.433 33.9 406.397 33.6999 407.292 33.2957L406.881 32.3843ZM393.726 17.02C395.779 17.02 397.434 16.397 398.616 15.0963L397.876 14.4237C396.926 15.4696 395.567 16.02 393.726 16.02V17.02ZM398.616 15.0967C399.823 13.7718 400.386 11.8715 400.386 9.48H399.386C399.386 11.7285 398.856 13.3482 397.877 14.4233L398.616 15.0967ZM400.386 9.48V8.64H399.386V9.48H400.386ZM400.386 8.64C400.386 6.33233 399.73 4.51502 398.337 3.2852C396.956 2.06585 394.936 1.5 392.366 1.5V2.5C394.81 2.5 396.55 3.04081 397.675 4.0348C398.789 5.01831 399.386 6.521 399.386 8.64H400.386ZM392.366 1.5H389.246V2.5H392.366V1.5ZM388.746 2V16.52H389.746V2H388.746ZM389.246 17.02H393.726V16.02H389.246V17.02Z" fill="#40403F"/>
</svg>
